<svg xmlns="http://www.w3.org/2000/svg" xmlns:xlink="http://www.w3.org/1999/xlink" width="1000" zoomAndPan="magnify" viewBox="0 0 750 749.999995" height="1000" preserveAspectRatio="xMidYMid meet" version="1.0"><defs><g/><clipPath id="cbe378b2b6"><path d="M 375 0 C 167.894531 0 0 167.894531 0 375 C 0 582.105469 167.894531 750 375 750 C 582.105469 750 750 582.105469 750 375 C 750 167.894531 582.105469 0 375 0 Z M 375 0 " clip-rule="nonzero"/></clipPath><clipPath id="3c07b6e53c"><path d="M 0 0 L 750 0 L 750 750 L 0 750 Z M 0 0 " clip-rule="nonzero"/></clipPath><clipPath id="42d8f73310"><path d="M 375 0 C 167.894531 0 0 167.894531 0 375 C 0 582.105469 167.894531 750 375 750 C 582.105469 750 750 582.105469 750 375 C 750 167.894531 582.105469 0 375 0 Z M 375 0 " clip-rule="nonzero"/></clipPath><clipPath id="eb50cd4e90"><rect x="0" width="750" y="0" height="750"/></clipPath></defs><g clip-path="url(#cbe378b2b6)"><g transform="matrix(1, 0, 0, 1, 0, -0.000000000000042435)"><g clip-path="url(#eb50cd4e90)"><g clip-path="url(#3c07b6e53c)"><g clip-path="url(#42d8f73310)"><rect x="-165" width="1080" fill="#000000" height="1079.999992" y="-164.999999" fill-opacity="1"/></g></g></g></g></g><g fill="#ffffff" fill-opacity="1"><g transform="translate(195.21972, 560.106295)"><g><path d="M 319.015625 0 L 282.171875 -94.234375 L 77.390625 -94.234375 L 40.53125 0 L 1.578125 0 L 160.03125 -394.828125 L 199.515625 -394.828125 L 357.984375 0 Z M 91.078125 -128.453125 L 268.484375 -128.453125 L 180.046875 -353.765625 Z M 91.078125 -128.453125 "/></g></g></g><g fill="#ffffff" fill-opacity="1"><g transform="translate(554.77439, 560.106295)"><g/></g></g><path stroke-linecap="butt" transform="matrix(0.278589, -0.696339, 0.696339, 0.278589, 272.531826, 466.404717)" fill="none" stroke-linejoin="miter" d="M 0.00181783 2.001106 L 50.875571 1.999686 " stroke="#000000" stroke-width="4" stroke-opacity="1" stroke-miterlimit="4"/><path stroke-linecap="butt" transform="matrix(0.278526, 0.696364, -0.696364, 0.278526, 463.506076, 431.535695)" fill="none" stroke-linejoin="miter" d="M 0.00120929 2.000579 L 50.879802 1.999328 " stroke="#000000" stroke-width="4" stroke-opacity="1" stroke-miterlimit="4"/><path stroke-linecap="butt" transform="matrix(-0.75, 0.000000001309, -0.000000001309, -0.75, 462.111172, 433.591607)" fill="none" stroke-linejoin="miter" d="M 0.00239617 2.002351 L 232.018032 2.002351 " stroke="#000000" stroke-width="4" stroke-opacity="1" stroke-miterlimit="4"/><path stroke-linecap="butt" transform="matrix(-0.75, 0.000000001309, -0.000000001309, -0.75, 462.111172, 462.841605)" fill="none" stroke-linejoin="miter" d="M 0.00239614 20.50235 L 232.018032 20.50235 " stroke="#000000" stroke-width="41" stroke-opacity="1" stroke-miterlimit="4"/><path stroke-linecap="butt" transform="matrix(-0.74852, 0.0470973, -0.0470973, -0.74852, 463.070836, 471.910533)" fill="none" stroke-linejoin="miter" d="M -0.00012546 20.499287 L 232.620562 20.497653 " stroke="#000000" stroke-width="41" stroke-opacity="1" stroke-miterlimit="4"/><path stroke-linecap="butt" transform="matrix(-0.270762, 0.69942, -0.69942, -0.270762, 329.459519, 411.361152)" fill="none" stroke-linejoin="miter" d="M -0.00225958 20.501332 L 157.220859 20.501753 " stroke="#000000" stroke-width="41" stroke-opacity="1" stroke-miterlimit="4"/><path stroke-linecap="butt" transform="matrix(0.27553, 0.697555, -0.697555, 0.27553, 452.778461, 405.811608)" fill="none" stroke-linejoin="miter" d="M 0.00212619 20.49813 L 171.554319 20.501171 " stroke="#000000" stroke-width="41" stroke-opacity="1" stroke-miterlimit="4"/></svg>