<svg xmlns="http://www.w3.org/2000/svg" xmlns:xlink="http://www.w3.org/1999/xlink" width="250" zoomAndPan="magnify" viewBox="0 0 187.5 74.999997" height="100" preserveAspectRatio="xMidYMid meet" version="1.0"><path fill="#ffffff" d="M 41.816406 52.347656 C 42.640625 45.25 43.484375 38.152344 44.332031 31.050781 C 45.128906 38.003906 45.953125 44.976562 46.773438 51.925781 C 44.78125 52.074219 43.785156 52.175781 41.816406 52.347656 Z M 40.820312 22.957031 C 38.976562 37.800781 37.234375 52.648438 35.539062 67.492188 C 37.433594 66.96875 38.355469 66.71875 40.246094 66.273438 C 40.597656 63.035156 40.796875 61.414062 41.144531 58.253906 C 43.660156 57.851562 44.929688 57.679688 47.472656 57.378906 C 47.820312 60.269531 47.992188 61.714844 48.34375 64.554688 C 50.433594 64.15625 51.457031 63.980469 53.546875 63.65625 C 51.753906 50.582031 50.035156 37.503906 48.367188 24.453125 C 45.328125 23.902344 43.835938 23.605469 40.820312 22.957031 Z M 69.8125 53.84375 C 69.8125 56.308594 68.765625 57.230469 67.125 57.355469 C 65.480469 57.453125 64.433594 56.632812 64.433594 54.117188 C 64.457031 45.027344 64.457031 35.910156 64.484375 26.820312 C 62.414062 26.59375 61.371094 26.445312 59.300781 26.171875 C 59.277344 35.460938 59.253906 44.777344 59.253906 54.066406 C 59.253906 59.921875 61.867188 62.886719 66.972656 62.410156 C 72.078125 61.914062 74.746094 58.726562 74.746094 53.34375 C 74.746094 44.828125 74.769531 36.285156 74.792969 27.765625 C 72.828125 27.617188 71.855469 27.539062 69.886719 27.367188 C 69.863281 36.183594 69.839844 45.027344 69.8125 53.84375 Z M 93.699219 28.363281 C 93.699219 34.839844 93.699219 41.316406 93.699219 47.789062 C 91.90625 41.316406 90.136719 34.8125 88.34375 28.335938 C 85.730469 28.289062 84.433594 28.261719 81.820312 28.164062 C 81.820312 39.121094 81.792969 50.082031 81.792969 61.042969 C 83.660156 60.96875 84.609375 60.941406 86.476562 60.917969 C 86.476562 53.046875 86.476562 45.175781 86.5 37.304688 C 88.644531 45.152344 90.8125 52.996094 92.976562 60.867188 C 95.121094 60.867188 96.191406 60.890625 98.332031 60.941406 C 98.332031 50.082031 98.332031 39.199219 98.308594 28.335938 C 96.464844 28.335938 95.542969 28.335938 93.699219 28.363281 Z M 113.777344 56.757812 C 112.605469 56.683594 112.007812 56.65625 110.835938 56.609375 C 110.835938 48.5625 110.8125 40.519531 110.785156 32.472656 C 111.957031 32.398438 112.554688 32.371094 113.726562 32.296875 C 115.371094 32.199219 116.367188 33.019531 116.367188 35.484375 C 116.367188 41.515625 116.390625 47.515625 116.390625 53.542969 C 116.441406 56.035156 115.445312 56.855469 113.777344 56.757812 Z M 113.824219 27.390625 C 110.539062 27.691406 108.894531 27.789062 105.605469 27.988281 C 105.605469 39.046875 105.628906 50.082031 105.65625 61.140625 C 108.945312 61.289062 110.613281 61.390625 113.898438 61.664062 C 119.105469 62.085938 121.644531 59.273438 121.621094 53.542969 C 121.621094 47.515625 121.597656 41.464844 121.597656 35.4375 C 121.570312 29.707031 119.03125 26.941406 113.824219 27.390625 Z M 135.621094 42.484375 C 134.824219 42.484375 134.425781 42.511719 133.601562 42.511719 C 133.601562 37.679688 133.578125 35.261719 133.578125 30.453125 C 134.574219 30.332031 135.070312 30.28125 136.066406 30.15625 C 137.886719 29.933594 138.707031 31.101562 138.707031 34.042969 C 138.707031 35.660156 138.707031 36.484375 138.707031 38.101562 C 138.707031 41.390625 137.539062 42.460938 135.621094 42.484375 Z M 143.914062 54.292969 C 143.914062 49.757812 140.476562 45.375 140.476562 45 C 140.476562 45 143.839844 40.71875 143.839844 36.257812 C 143.839844 34.886719 143.839844 34.214844 143.839844 32.847656 C 143.839844 26.144531 141.546875 23.40625 136.191406 24.378906 C 133.078125 24.949219 131.511719 25.199219 128.394531 25.671875 C 128.421875 38.226562 128.445312 50.753906 128.472656 63.308594 C 130.539062 63.605469 131.585938 63.78125 133.628906 64.128906 C 133.628906 58.800781 133.601562 53.46875 133.601562 48.140625 C 134.324219 48.164062 134.671875 48.164062 135.394531 48.214844 C 137.738281 48.3125 138.757812 49.757812 138.78125 53.59375 C 138.78125 56.183594 138.78125 57.480469 138.78125 60.070312 C 138.78125 63.433594 138.980469 64.105469 139.257812 65.226562 C 141.347656 65.675781 142.394531 65.898438 144.488281 66.421875 C 143.964844 64.679688 143.914062 63.109375 143.914062 61.015625 C 143.914062 58.300781 143.914062 56.980469 143.914062 54.292969 Z M 167.078125 12.945312 C 165.136719 13.542969 164.164062 13.839844 162.222656 14.414062 C 160.800781 22.683594 159.332031 31.351562 157.863281 39.796875 C 156.617188 32.398438 155.320312 24.054688 153.953125 16.679688 C 151.808594 17.230469 150.738281 17.503906 148.597656 18 C 150.886719 28.414062 153.03125 39.796875 155.097656 50.257812 C 155.097656 55.710938 155.097656 64.054688 155.097656 69.484375 C 157.140625 70.15625 158.160156 70.53125 160.179688 71.304688 C 160.179688 65.5 160.179688 55.015625 160.179688 49.210938 C 162.546875 36.929688 164.9375 25.421875 167.078125 12.945312 Z M 22.710938 14.589844 C 20.671875 13.992188 19.648438 13.691406 17.632812 13.042969 C 17.632812 32.050781 17.632812 54.914062 17.632812 73.917969 C 22.988281 71.503906 25.675781 70.53125 31.082031 68.8125 C 31.082031 66.074219 31.082031 64.679688 31.082031 61.9375 C 27.71875 62.734375 26.050781 63.160156 22.6875 64.15625 C 22.710938 48.910156 22.710938 29.832031 22.710938 14.589844 Z M 115.371094 8.609375 C 115.371094 7.242188 115.96875 6.71875 116.9375 6.71875 C 117.910156 6.71875 118.507812 7.242188 118.507812 8.609375 L 118.507812 19.023438 C 118.507812 20.390625 117.910156 20.914062 116.9375 20.914062 C 115.96875 20.914062 115.371094 20.390625 115.371094 19.023438 Z M 116.9375 23.679688 C 119.929688 23.679688 121.546875 21.910156 121.546875 18.824219 L 121.546875 8.785156 C 121.546875 5.695312 119.929688 3.929688 116.9375 3.929688 C 113.949219 3.929688 112.332031 5.695312 112.332031 8.785156 L 112.332031 18.847656 C 112.355469 21.910156 113.976562 23.679688 116.9375 23.679688 Z M 106.351562 4.175781 L 104.035156 12.246094 L 101.71875 4.175781 L 98.707031 4.175781 L 102.394531 15.609375 L 102.394531 23.480469 L 105.429688 23.480469 L 105.429688 15.609375 L 109.09375 4.175781 Z M 88.195312 17.550781 L 89.140625 15.785156 L 92.082031 23.480469 L 95.195312 23.480469 L 90.984375 12.796875 L 95.195312 4.203125 L 92.207031 4.203125 L 88.171875 12.273438 L 88.171875 4.203125 L 85.132812 4.203125 L 85.132812 23.503906 L 88.171875 23.503906 L 88.171875 17.550781 Z M 78.207031 19.023438 C 78.207031 20.390625 77.609375 20.914062 76.636719 20.914062 C 75.667969 20.914062 75.070312 20.390625 75.070312 19.023438 L 75.070312 8.609375 C 75.070312 7.242188 75.667969 6.71875 76.636719 6.71875 C 77.609375 6.71875 78.207031 7.242188 78.207031 8.609375 Z M 76.636719 3.953125 C 73.648438 3.953125 72.03125 5.722656 72.03125 8.808594 L 72.03125 18.847656 C 72.03125 21.9375 73.648438 23.703125 76.636719 23.703125 C 79.628906 23.703125 81.246094 21.9375 81.246094 18.847656 L 81.246094 8.808594 C 81.222656 5.722656 79.601562 3.953125 76.636719 3.953125 Z M 62.515625 23.457031 L 65.554688 23.457031 L 65.554688 6.917969 L 68.71875 6.917969 L 68.71875 4.152344 L 59.351562 4.152344 L 59.351562 6.917969 L 62.515625 6.917969 Z M 62.515625 23.457031 " fill-opacity="1" fill-rule="nonzero"/></svg>